Coordinates
version=1
nRows=8
nColumns=28
inDegrees=yes

Units are S.I. units (second, meters, Newtons, ...)
Angles are in degrees.

endheader
time	pelvis_tilt	pelvis_list	pelvis_rotation	pelvis_tx	pelvis_ty	pelvis_tz	hip_flexion_r	hip_adduction_r	hip_rotation_r	knee_angle_r	ankle_angle_r	subtalar_angle_r	mtp_angle_r	hip_flexion_l	hip_adduction_l	hip_rotation_l	knee_angle_l	socket_flexion	socket_adduction	socket_rotation	socket_tx	socket_ty	socket_tz	foot_flex	lumbar_extension	lumbar_bending	lumbar_rotation
      0.54583333	     -0.97179764	     -2.95388878	     11.24979909	     -0.03998824	      0.96276672	      0.20665082	     26.81307646	      2.02885083	     -7.24132799	    -12.39079721	      7.14740822	    -16.04335265	     -0.30445531	    -16.62757374	     -6.75114683	     13.23913276	    -12.18403154	      0.00000000	      0.00000000	      0.00000000	      0.00000000	      0.00000000	      0.00000000	      9.55041579	     -7.15101090	      4.26900032	    -19.57660663
      0.55000000	     -0.99634570	     -2.85848828	     11.17891796	     -0.04006634	      0.96268849	      0.20680417	     26.92812839	      1.93475070	     -7.26745912	    -12.57280101	      7.15722402	    -15.93197011	     -0.27775723	    -16.63588637	     -6.63060360	     13.22518548	    -12.15423339	      0.00000000	      0.00000000	      0.00000000	      0.00000000	      0.00000000	      0.00000000	      9.47383819	     -7.15366076	      4.12897586	    -19.43617680
      0.55416667	     -0.88137716	     -2.98888585	     11.27241534	     -0.03365903	      0.96150302	      0.20626205	     27.10705975	      2.09136144	     -7.33645189	    -13.50252574	      6.71828203	    -15.99437190	     -0.10259396	    -16.82121277	     -6.78818059	     13.14837708	    -12.72765373	      0.00000000	      0.00000000	      0.00000000	      0.00000000	      0.00000000	      0.00000000	      9.54617154	     -7.20300281	      4.43800376	    -19.56994111
      0.55833333	     -0.79167087	     -3.05352965	     11.32491376	     -0.02729696	      0.96028891	      0.20579514	     27.34315596	      2.18766852	     -7.34973384	    -14.51097933	      6.23966424	    -16.01025087	      0.03344486	    -16.97091505	     -6.85552773	     13.08957369	    -13.32952372	      0.00000000	      0.00000000	      0.00000000	      0.00000000	      0.00000000	      0.00000000	      9.57800862	     -7.23498678	      4.64207539	    -19.64279872
      0.56250000	     -0.70440695	     -3.16515459	     11.41531141	     -0.02090217	      0.95917331	      0.20524327	     27.48708541	      2.34897887	     -7.19204484	    -15.35573780	      5.91194092	    -15.96254089	      0.10020235	    -17.06495073	     -6.96920370	     13.13608591	    -13.98058982	      0.00000000	      0.00000000	      0.00000000	      0.00000000	      0.00000000	      0.00000000	      9.44372483	     -7.26361234	      4.92435908	    -19.65565285
      0.56666667	     -0.73051113	     -3.09679032	     11.28638676	     -0.01462175	      0.95771793	      0.20507989	     28.05616925	      2.27496810	     -7.38048829	    -16.79086758	      5.09164692	    -15.99004835	      0.43873074	    -17.07230924	     -6.81372131	     12.89205256	    -14.70640997	      0.00000000	      0.00000000	      0.00000000	      0.00000000	      0.00000000	      0.00000000	      9.47479934	     -7.21362296	      4.94190183	    -19.72827215
      0.57083333	     -1.21582492	     -2.99150398	     11.24468576	     -0.00836167	      0.95570081	      0.20479431	     29.05856531	      2.03220714	     -7.40363050	    -18.10057268	      3.89747123	    -16.33984052	      5.56624817	    -16.46281142	     -6.53383602	     12.88882798	    -15.61797615	      0.00000000	      0.00000000	      0.00000000	      0.00000000	      0.00000000	      0.00000000	      9.36131595	     -6.62534321	      4.80634692	    -19.66087883
      0.57500000	     -1.10777540	     -3.08268611	     11.22365290	     -0.00191798	      0.95459306	      0.20450313	     29.27742185	      2.17163231	     -7.37147835	    -19.14538607	      3.40977538	    -16.27401870	      5.55977313	    -16.52733128	     -6.60062643	     12.72038251	    -16.41022218	      0.00000000	      0.00000000	      0.00000000	      0.00000000	      0.00000000	      0.00000000	      9.26628758	     -6.67188078	      5.04386481	    -19.67298587
